<svg xmlns="http://www.w3.org/2000/svg" width="800" height="600" viewBox="0 0 800 600">
  <g stroke="#1a1a1a" stroke-width="0.5" fill="none">
    <line x1="50" y1="80" x2="350" y2="200"/>
    <line x1="200" y1="10" x2="500" y2="180"/>
    <line x1="400" y1="50" x2="750" y2="250"/>
    <line x1="600" y1="20" x2="780" y2="120"/>
    <line x1="100" y1="300" x2="450" y2="420"/>
    <line x1="300" y1="250" x2="650" y2="400"/>
    <line x1="500" y1="300" x2="780" y2="500"/>
    <line x1="0" y1="450" x2="300" y2="550"/>
    <line x1="150" y1="500" x2="500" y2="580"/>
    <line x1="550" y1="400" x2="800" y2="580"/>
    <line x1="650" y1="150" x2="800" y2="350"/>
    <line x1="0" y1="150" x2="200" y2="300"/>
    <line x1="350" y1="200" x2="400" y2="220"/>
    <line x1="500" y1="180" x2="550" y2="210"/>
    <line x1="450" y1="420" x2="500" y2="400"/>
    <line x1="300" y1="550" x2="350" y2="530"/>
  </g>
</svg>
